# xmcd CD database file
#
# Track frame offsets:
#	150
#	15171
#	26523
#	44189
#	55584
#	68511
#	83736
#	92562
#	109767
#	121966
#
# Disc length: 1781 seconds
#
# Revision: 0
# Processed by: cddbd v1.5.1PL2 Copyright (c) Steve Scherf et al.
# Submitted via: CDex 1.51
#
DISCID=7006f30a
DTITLE=The Stray Cats - Rant'n Rave with the Stray Cats
DYEAR=1900
DGENRE=Rock
TTITLE0=Rebels Rule
TTITLE1=Too Hip , Gonna Go
TTITLE2=Look at That Cadillac
TTITLE3=Something's Wrong with My Radio
TTITLE4=18 Miles to Memphis
TTITLE5=(She's) Sexy and 17
TTITLE6=Dig Dirty Doggie
TTITLE7=I Won't Standing in Your Way
TTITLE8=Hotrod Gang
TTITLE9=How Long You Wanna Live , Anyway
EXTD=
EXTT0=
EXTT1=
EXTT2=
EXTT3=
EXTT4=
EXTT5=
EXTT6=
EXTT7=
EXTT8=
EXTT9=
PLAYORDER=
